<svg width="29" height="32" viewBox="0 0 29 32" fill="none" xmlns="http://www.w3.org/2000/svg">
<path d="M14.4199 0.0178051C11.1003 0.19065 7.96284 1.55417 5.60931 3.84684C3.25579 6.13952 1.85189 9.19996 1.66685 12.4412C1.65248 12.742 1.64632 13.0428 1.64837 13.3436C1.65781 13.7261 1.78212 14.0974 2.00585 14.4115C2.22959 14.7255 2.54289 14.9685 2.90683 15.1101C3.27077 15.2518 3.66931 15.2859 4.05293 15.2082C4.43655 15.1305 4.78834 14.9445 5.0646 14.6732L5.17241 14.5679C5.36021 14.3819 5.50858 14.1616 5.60902 13.9195C5.70945 13.6774 5.75998 13.4183 5.7577 13.1571C5.75282 11.3507 6.29705 9.58342 7.32145 8.07921C8.34585 6.575 9.80435 5.40149 11.5122 4.7073C13.2201 4.01311 15.1005 3.82947 16.9154 4.17962C18.7302 4.52978 20.3978 5.39799 21.707 6.6743C23.0162 7.95061 23.908 9.5776 24.2696 11.3492C24.6312 13.1208 24.4462 14.9574 23.7382 16.6263C23.0301 18.2952 21.8307 19.7214 20.292 20.7242C18.7533 21.727 16.9445 22.2614 15.0946 22.2596H7.01761L13.3572 16.078V18.2558C13.3572 18.7879 13.5737 19.2983 13.959 19.6746C14.3443 20.0508 14.8669 20.2622 15.4118 20.2622C15.9568 20.2622 16.4794 20.0508 16.8647 19.6746C17.25 19.2983 17.4665 18.7879 17.4665 18.2558V11.2349C17.4665 11.1688 17.4665 11.1026 17.4665 11.0364C17.4678 11.0295 17.4678 11.0223 17.4665 11.0154C17.4347 10.696 17.3232 10.3891 17.1416 10.1216C16.9601 9.85416 16.7141 9.63427 16.4253 9.48124L16.3822 9.46018L16.2621 9.40303L16.2128 9.38197C16.1635 9.36091 16.108 9.34287 16.0557 9.32482H15.991L15.837 9.28571C15.5403 9.22365 15.2331 9.22823 14.9385 9.2991C14.6439 9.36997 14.3697 9.50528 14.1365 9.69481H14.115L13.9979 9.79709L0.616419 22.8612C0.422913 23.0427 0.268679 23.2603 0.162853 23.5011C0.0570268 23.7419 0.0017605 24.0009 0.00032749 24.263C-0.00211971 24.5281 0.049344 24.791 0.151736 25.0366C0.254127 25.2821 0.40541 25.5054 0.596815 25.6934C0.78822 25.8814 1.01594 26.0305 1.26678 26.1319C1.51761 26.2334 1.78657 26.2852 2.05807 26.2844H16.0618C16.1671 26.2803 16.2711 26.26 16.3699 26.2242C19.889 25.9213 23.1449 24.2791 25.4347 21.6521C27.7245 19.0252 28.8645 15.6242 28.6085 12.1835C28.3525 8.74282 26.721 5.53847 24.0664 3.26231C21.4118 0.986145 17.9469 -0.179227 14.4199 0.0178051Z" fill="#181818"/>
<path d="M15.4118 32C16.5465 32 17.4664 31.1017 17.4664 29.9936C17.4664 28.8855 16.5465 27.9872 15.4118 27.9872C14.277 27.9872 13.3571 28.8855 13.3571 29.9936C13.3571 31.1017 14.277 32 15.4118 32Z" fill="#181818"/>
</svg>
