<svg width="168" height="155" fill="none" xmlns="http://www.w3.org/2000/svg"><path d="M4 152.989s43.661 1.42 41.542-28.296H30.613c-3.162-.253-5.076-1.408-6.082-2.2-4.821-3.773-5.927-12.266-2.211-20.903H11.26l13.27-17.602M83.14 137c-.365-10.638.365-21.471 0-32.109 8.482-15.292 9.842-17.24 10.505-20.903 1.913-10.539-4.036-23.543-14.375-30.804-12.374-8.68-29.625-8.14-41.468 1.1-8.294 4.95-10.773 14.475-12.581 19.803" stroke="#181818" stroke-width="1.5" stroke-miterlimit="10"/><path d="M6 77h95.276c4.27 0 7.724-3.41 7.724-7.625 0-4.216-3.454-7.625-7.724-7.625-.22 0-.441.01-.662.033.42-1.482.662-3.04.662-4.663 0-9.476-7.778-17.156-17.378-17.156-2.052 0-4.027.37-5.847 1.024C77.156 27.035 65.416 16 51.072 16c-14.928 0-27.032 11.95-27.032 26.688 0 .925.044 1.84.143 2.744-8.65.218-15.59 7.19-15.59 15.773 0 5.098 2.841 9.636 6.956 12.527h10.146M48 94h19" stroke="#181818" stroke-width="1.5" stroke-miterlimit="10"/><path d="M45 126.92a2 2 0 100-4 2 2 0 000 4zM22 103a2 2 0 100-4 2 2 0 000 4zM11 103a2 2 0 100-4 2 2 0 000 4zM24 86a2 2 0 100-4 2 2 0 000 4zM6 79a2 2 0 100-4 2 2 0 000 4zM83 107a2 2 0 100-4 2 2 0 000 4zM83 139a2 2 0 100-4 2 2 0 000 4zM9 63a2 2 0 100-4 2 2 0 000 4zM24 47a2 2 0 100-4 2 2 0 000 4zM51 17a2 2 0 100-4 2 2 0 000 4zM86 17a2 2 0 100-4 2 2 0 000 4zM17 17a2 2 0 100-4 2 2 0 000 4zM78 42a2 2 0 100-4 2 2 0 000 4zM95 46a2 2 0 100-4 2 2 0 000 4zM101 63a2 2 0 100-4 2 2 0 000 4zM109 71a2 2 0 100-4 2 2 0 000 4zM102 79a2 2 0 100-4 2 2 0 000 4zM4 155a2 2 0 100-4 2 2 0 000 4z" fill="#181818"/><circle cx="32" cy="114" r="2.5" fill="#fff" stroke="#181818"/><circle cx="32" cy="114" r=".5" fill="#fff" stroke="#181818"/><path d="M17 15h69" stroke="#181818" stroke-width="1.5"/><path d="M49 97h18M52 101h11" stroke="#181818" stroke-width="1.5" stroke-miterlimit="10"/><path d="M71 76.342c0-7.864-6.644-14.15-14.492-13.257-5.806.661-10.558 5.371-11.375 11.305-.656 4.775 1.161 9.165 4.322 12 .828.739 1.28 1.83 1.28 2.967V94H65.27v-4.665c0-1.103.43-2.173 1.236-2.901C69.258 83.985 71 80.379 71 76.342z" fill="#FFE43C" stroke="#181818" stroke-width="1.5" stroke-miterlimit="10"/><path d="M54.476 93c.546-1.652 1.636-4.25 1.636-7.604m0 0c0-4.194-2.181-5.358-2.726-5.358-.546 0-1.091 5.358 2.726 5.358zm0 0c1.273.127 3.381.305 3.817 0m0 0c.546-.381 4.908-4.214 2.182-5.358-.935-.392-2.182 2.308-2.182 5.358zm0 0L61.565 93" stroke="#181818" stroke-width="1.5"/><circle cx="58" cy="72" r="2.5" fill="#fff" stroke="#181818"/><circle cx="58" cy="72" r=".5" fill="#fff" stroke="#181818"/></svg>