<svg width="42" height="42" fill="none" xmlns="http://www.w3.org/2000/svg"><path transform="scale(.99474 1.00523) rotate(45 1.536 30.017)" fill="#FFE43C" stroke="#FFE43C" stroke-width="2" d="M0 1.422h17.993v17.993H0z"/><path transform="scale(.99474 1.00523) rotate(45 5.937 33.727)" stroke="#181818" d="M0 .711h21.279V21.99H0z"/><path fill="#181818" d="M38.061 21l1.97-1.99L42 21l-1.97 1.99zM23.208 36.01l1.97-1.99 1.97 1.99-1.97 1.99zM23.208 5.99L25.178 4l1.97 1.99-1.97 1.99z"/><path transform="scale(.99474 1.00523) rotate(45 -6.74 20.267)" stroke="#181818" d="M0 .711h14.178v14.178H0z"/><path fill="#181818" d="M0 21l1.97-1.99L3.938 21l-1.97 1.99zM12.068 33.309l-1.97-1.99 1.97-1.99 1.97 1.99zM19.495 21l1.97-1.99L23.433 21l-1.97 1.99zM11.716 13.14l-1.969-1.99 1.97-1.99 1.969 1.99z"/></svg>