<svg width="42" height="42" fill="none" xmlns="http://www.w3.org/2000/svg"><path d="M2 40.474a.5.5 0 00.498.501l4.5.017a.5.5 0 00.004-1l-4-.015.015-4a.5.5 0 10-1-.003L2 40.474zM41.286 2.477a.5.5 0 00-.498-.502l-4.5-.017a.5.5 0 10-.004 1l4 .015-.015 4a.5.5 0 001 .004l.017-4.5zM34.933 7.58a.5.5 0 10.705.71l-.705-.71zM7.353 36.364a.5.5 0 00-.705-.71l.704.71zM35.637 8.289l5.5-5.459-.705-.71-5.5 5.46.705.71zM2.852 40.83l4.5-4.466-.704-.71-4.5 4.466.704.71z" fill="#181818"/><path fill="#FFE43C" stroke="#FFE43C" stroke-width="2" d="M9.5 10.423h23v22.814h-23z"/><path fill="#fff" stroke="#181818" stroke-width="1.2" d="M2.1 4.068h14.8v14.681H2.1z"/><path fill="#181818" d="M.5 2.475h3v2.978h-3zM.5 17.363h3v2.978h-3zM15.5 2.475h3v2.978h-3zM15.5 17.363h3v2.978h-3z"/><path fill="#fff" stroke="#181818" stroke-width="1.2" d="M25.1 23.919h14.8V38.6H25.1z"/><path fill="#181818" d="M38.5 22.326h3v2.978h-3zM38.5 37.214h3v2.978h-3zM23.5 22.326h3v2.978h-3zM23.5 37.214h3v2.978h-3z"/></svg>