<svg width="102" height="32" fill="none" xmlns="http://www.w3.org/2000/svg"><g clip-path="url(#clip0)" fill="#181818"><path d="M49.066 9.731a5.476 5.476 0 000-4.656 5.812 5.812 0 00-1.46-1.884 6.868 6.868 0 00-2.243-1.26 9.137 9.137 0 00-5.711 0 6.777 6.777 0 00-2.224 1.26 5.87 5.87 0 00-1.451 1.884 5.446 5.446 0 000 4.656c.349.718.842 1.36 1.45 1.886a6.887 6.887 0 002.225 1.26c1.852.61 3.858.61 5.711 0a6.93 6.93 0 002.243-1.263 5.813 5.813 0 001.46-1.883zm-3.08-1.017a3.32 3.32 0 01-.83 1.038 3.871 3.871 0 01-1.207.68 4.379 4.379 0 01-2.88 0 3.814 3.814 0 01-1.199-.68 3.336 3.336 0 01-.816-1.029 2.97 2.97 0 010-2.62c.2-.395.479-.748.82-1.037.352-.299.759-.53 1.198-.683a4.455 4.455 0 012.88 0c.441.155.85.386 1.208.683.344.288.626.64.828 1.037a2.97 2.97 0 010 2.62l-.003-.009zM53.24 13.016h3.142V8.522h3.697V6.227h-3.697v-2.14h4.06V1.794H53.24v11.223zM67.114 8.522h3.7V6.227h-3.7v-2.14h4.06V1.794h-7.199v11.223h3.14V8.522zM77.846 1.793h-3.139v11.223h3.14V1.793zM88.215 1.474a7.518 7.518 0 00-2.557.439 7.055 7.055 0 00-2.14 1.224 5.989 5.989 0 00-1.467 1.865 5.174 5.174 0 00-.548 2.37 5.242 5.242 0 00.554 2.39 6.24 6.24 0 001.479 1.891 6.78 6.78 0 002.131 1.24 7.446 7.446 0 003.835.342 10.53 10.53 0 001.43-.351l.265-.082V9.605a4.208 4.208 0 01-2.788 1.07 3.933 3.933 0 01-1.42-.252 3.616 3.616 0 01-1.143-.689 3.13 3.13 0 01-.779-1.064 3.064 3.064 0 01-.265-1.282 3.03 3.03 0 01.277-1.29 3.14 3.14 0 01.758-1.033 3.615 3.615 0 011.146-.682c.46-.17.95-.254 1.441-.25a3.929 3.929 0 011.5.272c.476.188.909.466 1.273.82V2.03a10.21 10.21 0 00-1.482-.415 7.997 7.997 0 00-1.5-.141zM102 4.088V1.793h-7.15v11.223H102V10.72h-4.007v-2.2h3.783V6.228h-3.783v-2.14H102zM44.081 20.013h-4.26l-4.9 7.102v1.763h6.262v2.355h2.898v-2.355h1.569v-2.049H44.08v-6.816zm-2.898 6.816H37.89l3.302-5.006-.01 5.006zM57.273 21.294a4.926 4.926 0 00-1.698-1.203 5.842 5.842 0 00-4.356 0 4.976 4.976 0 00-1.697 1.203 5.434 5.434 0 00-1.112 1.865 7.723 7.723 0 000 4.891c.241.69.62 1.327 1.112 1.874a4.95 4.95 0 001.697 1.204 5.796 5.796 0 004.356 0 4.896 4.896 0 001.697-1.204 5.662 5.662 0 001.103-1.877c.53-1.59.53-3.302 0-4.89a5.556 5.556 0 00-1.102-1.863zm-1.766 5.715c-.09.39-.239.763-.44 1.11-.174.305-.42.565-.718.759-.283.176-.613.269-.949.267a1.753 1.753 0 01-.955-.267 2.249 2.249 0 01-.717-.744 3.821 3.821 0 01-.45-1.11 6.23 6.23 0 010-2.806c.089-.392.24-.768.45-1.113.182-.292.427-.543.717-.734.285-.179.617-.272.955-.268.336-.002.666.091.95.268.293.188.539.44.717.737.203.346.353.72.444 1.11.108.459.16.928.157 1.399.004.47-.05.94-.16 1.398v-.006zM70.502 20.013H66.23l-4.889 7.102v1.763h6.263v2.355h2.898v-2.355h1.58v-2.049h-1.567l-.013-6.816zm-2.898 6.816h-3.302l3.302-5.006v5.006zM14.42.018a13.644 13.644 0 00-8.81 3.829 13.037 13.037 0 00-3.943 8.594c-.015.301-.02.602-.019.903.01.382.134.753.358 1.068.224.313.537.556.9.698.365.142.763.176 1.147.098a2.014 2.014 0 001.012-.535l.107-.105c.188-.186.337-.406.437-.649.1-.242.15-.5.149-.762A8.974 8.974 0 017.32 8.08a9.3 9.3 0 014.191-3.372 9.555 9.555 0 015.403-.527 9.418 9.418 0 014.792 2.494 9.062 9.062 0 012.563 4.675 8.927 8.927 0 01-.532 5.277 9.177 9.177 0 01-3.446 4.098 9.507 9.507 0 01-5.198 1.536H7.018l6.34-6.182v2.178c0 .532.216 1.042.6 1.419a2.08 2.08 0 001.454.587 2.08 2.08 0 001.453-.587c.385-.377.601-.887.601-1.42v-7.02-.199a1.931 1.931 0 00-.325-.915 1.993 1.993 0 00-.716-.64l-.043-.02-.12-.058-.05-.021c-.049-.021-.104-.04-.156-.057h-.065l-.154-.04a2.049 2.049 0 00-1.7.41h-.022l-.117.102L.616 22.861c-.193.182-.347.4-.453.64a1.962 1.962 0 00-.011 1.535 2 2 0 00.445.657c.191.188.419.337.67.439.25.101.52.153.791.152h14.004c.105-.004.209-.024.308-.06 3.519-.303 6.775-1.945 9.065-4.572a12.94 12.94 0 003.173-9.469c-.256-3.44-1.887-6.645-4.542-8.92A13.658 13.658 0 0014.42.017zM15.412 32c1.135 0 2.054-.898 2.054-2.006 0-1.108-.92-2.007-2.054-2.007-1.135 0-2.055.899-2.055 2.007S14.277 32 15.412 32z"/></g><defs><clipPath id="clip0"><path fill="#fff" d="M0 0h102v32H0z"/></clipPath></defs></svg>