<svg width="102" height="32" fill="none" xmlns="http://www.w3.org/2000/svg"><g clip-path="url(#clip0)" fill="#F5F5F7"><path d="M49.066 9.731a5.476 5.476 0 000-4.656 5.812 5.812 0 00-1.46-1.883 6.868 6.868 0 00-2.243-1.26 9.137 9.137 0 00-5.711 0 6.777 6.777 0 00-2.224 1.26 5.87 5.87 0 00-1.451 1.883 5.446 5.446 0 000 4.656c.348.718.842 1.36 1.45 1.886a6.885 6.885 0 002.225 1.26c1.852.611 3.858.611 5.71 0a6.93 6.93 0 002.243-1.263 5.811 5.811 0 001.46-1.883zm-3.08-1.016a3.32 3.32 0 01-.83 1.037 3.874 3.874 0 01-1.207.68 4.38 4.38 0 01-2.88 0 3.815 3.815 0 01-1.199-.68 3.336 3.336 0 01-.816-1.028 2.97 2.97 0 010-2.62c.2-.396.479-.749.82-1.038.352-.298.758-.53 1.198-.683a4.455 4.455 0 012.88 0c.441.155.85.386 1.208.683.344.288.626.64.828 1.038a2.97 2.97 0 010 2.62l-.003-.01zM53.24 13.016h3.142V8.522h3.697V6.227h-3.697V4.088h4.06V1.793H53.24v11.223zM67.114 8.522h3.7V6.227h-3.7V4.088h4.06V1.793h-7.199v11.223h3.14V8.522zM77.846 1.793h-3.139v11.223h3.14V1.793zM88.215 1.474a7.518 7.518 0 00-2.557.44 7.055 7.055 0 00-2.14 1.224 5.988 5.988 0 00-1.467 1.865 5.174 5.174 0 00-.549 2.37 5.242 5.242 0 00.555 2.388 6.24 6.24 0 001.479 1.892 6.78 6.78 0 002.131 1.24 7.447 7.447 0 003.835.343 10.53 10.53 0 001.43-.352l.265-.082V9.605a4.208 4.208 0 01-2.788 1.07 3.933 3.933 0 01-1.42-.252 3.617 3.617 0 01-1.143-.689 3.13 3.13 0 01-.779-1.064 3.064 3.064 0 01-.265-1.282 3.03 3.03 0 01.277-1.29 3.14 3.14 0 01.758-1.032 3.615 3.615 0 011.146-.683c.46-.17.95-.254 1.441-.25a3.93 3.93 0 011.5.272c.476.188.909.467 1.273.82V2.031a10.21 10.21 0 00-1.482-.416 7.996 7.996 0 00-1.5-.14zM102 4.088V1.793h-7.15v11.223H102v-2.295h-4.007V8.522h3.782V6.227h-3.782V4.088H102zM44.081 20.013h-4.26l-4.9 7.102v1.763h6.262v2.355h2.898v-2.355h1.568v-2.049h-1.568v-6.816zm-2.898 6.816H37.89l3.302-5.005-.01 5.005zM57.272 21.294a4.926 4.926 0 00-1.697-1.203 5.841 5.841 0 00-4.356 0 4.976 4.976 0 00-1.697 1.203 5.436 5.436 0 00-1.112 1.865 7.723 7.723 0 000 4.892c.241.69.62 1.326 1.112 1.873a4.95 4.95 0 001.697 1.204 5.796 5.796 0 004.356 0 4.893 4.893 0 001.697-1.204 5.66 5.66 0 001.103-1.877c.53-1.589.53-3.301 0-4.89a5.558 5.558 0 00-1.103-1.863zm-1.765 5.716c-.09.389-.239.763-.44 1.11-.174.304-.42.564-.718.758-.283.176-.613.27-.949.267a1.753 1.753 0 01-.955-.267 2.249 2.249 0 01-.717-.743 3.82 3.82 0 01-.45-1.11 6.229 6.229 0 010-2.807c.088-.392.24-.767.45-1.113.182-.292.427-.542.717-.734.285-.179.617-.272.955-.267.336-.002.666.09.949.267.294.189.54.44.718.737.203.347.353.72.443 1.11.109.459.161.928.157 1.399.005.47-.049.94-.16 1.399v-.006zM70.502 20.013H66.23l-4.889 7.102v1.763h6.263v2.355h2.898v-2.355h1.58v-2.049h-1.567l-.013-6.816zm-2.898 6.816h-3.302l3.302-5.005v5.005zM14.42.018a13.644 13.644 0 00-8.81 3.829 13.037 13.037 0 00-3.943 8.594c-.015.3-.02.602-.019.902.01.383.134.754.358 1.068.223.314.537.557.9.699.365.142.763.176 1.147.098a2.013 2.013 0 001.011-.535l.108-.105c.188-.186.336-.407.437-.649.1-.242.15-.5.149-.762A8.974 8.974 0 017.32 8.079a9.3 9.3 0 014.191-3.372 9.555 9.555 0 015.403-.528 9.418 9.418 0 014.792 2.495 9.063 9.063 0 012.563 4.675 8.928 8.928 0 01-.532 5.277 9.177 9.177 0 01-3.446 4.098 9.506 9.506 0 01-5.198 1.535H7.017l6.34-6.181v2.178c0 .532.216 1.042.602 1.418a2.08 2.08 0 001.453.588 2.08 2.08 0 001.453-.588c.385-.376.601-.886.601-1.418v-7.021-.199a1.932 1.932 0 00-.325-.915 1.992 1.992 0 00-.716-.64l-.043-.021-.12-.057-.05-.021c-.049-.021-.104-.04-.157-.057h-.064l-.154-.04a2.05 2.05 0 00-1.7.41h-.022l-.117.102L.616 22.86c-.193.181-.347.4-.453.64a1.962 1.962 0 00-.011 1.535 2 2 0 00.445.657c.191.188.419.337.67.439.25.101.52.153.79.152h14.005c.105-.004.209-.024.308-.06 3.519-.303 6.775-1.945 9.065-4.572a12.94 12.94 0 003.173-9.469c-.256-3.44-1.887-6.645-4.542-8.92A13.659 13.659 0 0014.42.017zM15.412 32c1.134 0 2.054-.899 2.054-2.007s-.92-2.006-2.054-2.006c-1.135 0-2.055.898-2.055 2.006 0 1.108.92 2.007 2.055 2.007z"/></g><defs><clipPath id="clip0"><path fill="#fff" d="M0 0h102v32H0z"/></clipPath></defs></svg>