<svg width="168" height="155" fill="none" xmlns="http://www.w3.org/2000/svg"><g clip-path="url(#clip0)"><path d="M165 126.619a1 1 0 001-1v-3.238a1 1 0 00-1-1h-3.047c-.497 0-.916-.366-1.011-.854a16.928 16.928 0 00-.621-2.315 1.045 1.045 0 01.431-1.243l2.589-1.557c.473-.285.626-.899.342-1.373l-1.672-2.779a.999.999 0 00-1.373-.341l-2.504 1.51c-.432.26-.988.156-1.32-.224-.4-.456-.824-.89-1.271-1.3a1.043 1.043 0 01-.214-1.287l1.443-2.498a1 1 0 00-.366-1.367l-2.814-1.62a1 1 0 00-1.365.366l-1.348 2.333c-.255.44-.798.616-1.274.44-.7-.259-1.421-.47-2.16-.635a1.041 1.041 0 01-.826-1.005V103a1 1 0 00-1-1h-3.238a1 1 0 00-1 1v2.423c0 .509-.383.933-.885 1.016-.797.133-1.576.319-2.335.554a1.038 1.038 0 01-1.211-.458l-1.177-2.036a1 1 0 00-1.365-.366l-2.814 1.621a1 1 0 00-.367 1.366l1.091 1.89a1.04 1.04 0 01-.248 1.313 18.19 18.19 0 00-1.816 1.75 1.041 1.041 0 01-1.29.219l-1.844-1.065a1 1 0 00-1.366.367l-1.621 2.814a1 1 0 00.366 1.365l1.75 1.011c.434.251.613.783.444 1.255a17.263 17.263 0 00-.682 2.488 1.043 1.043 0 01-1.012.854H123a1 1 0 00-1 1v3.238a1 1 0 001 1h1.996c.499 0 .918.368 1.013.858.187.965.457 1.901.801 2.801.179.47.011 1.009-.42 1.268l-1.732 1.042a1 1 0 00-.341 1.372l1.672 2.781c.285.473.899.626 1.373.342l1.832-1.102a1.038 1.038 0 011.29.196 17.478 17.478 0 001.58 1.499c.388.325.505.88.252 1.319l-1.089 1.885a1 1 0 00.367 1.366l2.814 1.621a1 1 0 001.365-.366l1.177-2.036a1.038 1.038 0 011.211-.458c.759.235 1.538.421 2.335.554.502.083.885.507.885 1.016V145a1 1 0 001 1h3.238a1 1 0 001-1v-2.632c0-.486.351-.899.826-1.005.739-.165 1.46-.376 2.16-.635.476-.176 1.019 0 1.274.44l1.348 2.333a1 1 0 001.365.366l2.814-1.62a1 1 0 00.366-1.367l-1.444-2.499a1.041 1.041 0 01.213-1.285 16.872 16.872 0 001.484-1.542c.326-.385.881-.5 1.318-.248l2.537 1.466a1 1 0 001.367-.366l1.62-2.814a1 1 0 00-.366-1.365l-2.624-1.517a1.04 1.04 0 01-.454-1.224c.212-.655.387-1.326.52-2.01a1.044 1.044 0 011.013-.857H165zm-12.305-.629c-.052.21-.105.42-.167.629a9.2 9.2 0 01-1.938 3.551 3.802 3.802 0 01-.399.43 9.104 9.104 0 01-3.572 2.284 3.434 3.434 0 01-.44.146 9.266 9.266 0 01-2.703.399 10.06 10.06 0 01-2.095-.231 9.366 9.366 0 01-4.369-2.347 9.27 9.27 0 01-2.566-4.159c-.011-.031-.021-.052-.021-.073a9.03 9.03 0 01-.377-2.619c0-.87.115-1.708.345-2.514 0-.032.011-.063.032-.105a9.168 9.168 0 012.587-4.232c.042-.053.095-.095.137-.137a9.414 9.414 0 014.232-2.21 10.06 10.06 0 012.095-.231c.933 0 1.844.137 2.703.399.147.041.293.083.44.146a9.33 9.33 0 013.457 2.158c.189.178.356.356.514.556a9.2 9.2 0 011.938 3.551c.052.157.094.304.125.461.168.691.252 1.414.252 2.158 0 .681-.074 1.351-.21 1.99z" fill="#FFE43C" stroke="#181818" stroke-width="1.5" stroke-miterlimit="10"/><circle cx="144" cy="124" r="3.25" fill="#fff" stroke="#181818" stroke-width="1.5"/><path d="M115.61 40.792l10.837-10.837c2.287 6.8.722 14.628-4.697 20.047-5.725 5.725-14.122 7.153-21.167 4.282l-51.299 51.299c2.87 7.046 1.443 15.442-4.282 21.167-5.419 5.419-13.247 6.984-20.047 4.697l10.837-10.837a8.68 8.68 0 000-12.279 8.68 8.68 0 00-12.28 0l-10.837 10.837c-2.287-6.8-.721-14.629 4.697-20.047 5.726-5.726 14.122-7.153 21.167-4.283l51.3-51.299c-2.871-7.045-1.444-15.441 4.282-21.167 5.418-5.418 13.246-6.984 20.046-4.697L103.33 28.512a8.682 8.682 0 000 12.28 8.681 8.681 0 0012.28 0z" fill="#FFE43C" stroke="#181818" stroke-width="1.5" stroke-miterlimit="10"/><circle cx="29" cy="115" r="2.5" fill="#fff" stroke="#181818"/><circle cx="29" cy="115" r=".5" fill="#fff" stroke="#181818"/><circle cx="110" cy="34.999" r="2.5" fill="#fff" stroke="#181818"/><circle cx="110" cy="34.999" r=".5" fill="#fff" stroke="#181818"/><path d="M113.748 19.486c.965 0 1.747-.78 1.747-1.743 0-.962-.782-1.743-1.747-1.743-.966 0-1.748.78-1.748 1.743 0 .963.782 1.744 1.748 1.744zM12.748 120.486c.965 0 1.747-.78 1.747-1.743 0-.963-.782-1.743-1.747-1.743-.966 0-1.748.78-1.748 1.743 0 .963.782 1.743 1.748 1.743zM126.748 31.486c.965 0 1.747-.78 1.747-1.743 0-.962-.782-1.743-1.747-1.743-.966 0-1.748.78-1.748 1.743 0 .963.782 1.744 1.748 1.744zM24.748 133.486c.965 0 1.747-.78 1.747-1.743 0-.963-.782-1.743-1.747-1.743-.966 0-1.748.78-1.748 1.743 0 .963.782 1.743 1.748 1.743zM122.748 51.487c.965 0 1.747-.78 1.747-1.744 0-.962-.782-1.743-1.747-1.743-.965 0-1.748.78-1.748 1.743 0 .963.783 1.744 1.748 1.744zM94.893 23.466c.963-.056 1.7-.88 1.644-1.841a1.745 1.745 0 00-1.845-1.64c-.964.056-1.7.88-1.644 1.841a1.745 1.745 0 001.845 1.64zM110.849 7.826a1.746 1.746 0 00.076-2.467 1.746 1.746 0 00-2.468-.07 1.746 1.746 0 00-.076 2.467c.661.7 1.765.732 2.468.07zM80.461 36.63a1.745 1.745 0 00.076-2.467 1.745 1.745 0 00-2.467-.07 1.745 1.745 0 00-.076 2.467c.66.701 1.765.732 2.467.07z" fill="#181818"/><path d="M78.838 35.927l32.091-30.446" stroke="#181818" stroke-width="1.5"/><path d="M16.993 100.602a1.745 1.745 0 001.618-1.864 1.745 1.745 0 00-1.868-1.613 1.745 1.745 0 00-1.618 1.864c.07.96.906 1.683 1.868 1.613zM33.663 84.596a1.745 1.745 0 00.04-2.468 1.745 1.745 0 00-2.467-.035 1.745 1.745 0 00-.041 2.468c.67.69 1.775.707 2.468.035zM3.683 113.825a1.745 1.745 0 00.041-2.468 1.745 1.745 0 00-2.468-.036 1.745 1.745 0 00-.041 2.468c.67.692 1.775.707 2.468.036z" fill="#181818"/><path d="M2.05 113.144L33.71 82.25" stroke="#181818" stroke-width="1.5"/><path d="M144.001 50h-101v102.001h101v-102z" fill="#FFE43C" stroke="#181818" stroke-width="1.5" stroke-miterlimit="10"/><path d="M45 48h-4v4h4v-4zM146.001 48h-4v4h4v-4zM45 150.001h-4v4h4v-4z" fill="#181818"/><path d="M128.001 121.001h-69v18h69v-18z" fill="#FFE43C" stroke="#181818" stroke-width="1.5" stroke-miterlimit="10"/><path d="M61 137.001h-4v4h4v-4zM61 119.001h-4v4h4v-4zM130 137.001h-4v4h4v-4zM130 119.001h-4v4h4v-4z" fill="#fff" stroke="#181818" stroke-width="1.5"/><path d="M146.001 150.001h-4v4h4v-4z" fill="#181818"/><path d="M58.754 68h14.441M58.754 75.46h37.548M58.754 81.21h24.55M58.754 86.96h41.88M59 101.001h46M59 107.001h55M58.754 92.711h7.22M80.416 68h8.665M126.001 70l4 3.984-4 4.017M116.001 70l-4 3.984 4 4.017M123.741 67.553l-5.777 12.939" stroke="#181818" stroke-width="1.5" stroke-miterlimit="10"/></g><defs><clipPath id="clip0"><path fill="#fff" d="M0 0h168v155H0z"/></clipPath></defs></svg>