<svg width="169" height="156" fill="none" xmlns="http://www.w3.org/2000/svg"><path d="M110.727 52.265c-3.585 0-6.985.714-10.107 2.017C97.313 39.826 84.424 29 69 29S40.687 39.826 37.38 54.282a26.128 26.128 0 00-10.107-2.017C12.776 52.265 1 64.085 1 78.633 1 93.18 12.776 105 27.273 105h1.646-.1 81.908C125.224 105 137 93.181 137 78.633c0-14.549-11.776-26.368-26.273-26.368z" fill="#FFE43C" stroke="#181818" stroke-width="1.5" stroke-miterlimit="10"/><path d="M106.73 82.79c-.03-.805-.58-1.547-1.53-2.027-1.13-.565-2.82-.763-3.79-.021-3.19 1.88-3.19 5.735-3.19 8.838l1.95 11.69c-2.57 6.174-6.56 15.304-7.98 17.571h-6.6l-3.23-8.65v-7.323c0-2.215-1.09-4.127-3.16-5.516-.63-.428-1.12-.596-1.68-.794l-.37-.136c-.81-.292-2.07-.595-2.13-.606-.36-.083-1.58-.303-2.28.282-.31.262-.48.638-.48 1.055l-.19 42.602h-.82V156h29.29v-16.245h-2.45v-2.883l2.96-3.792a41.937 41.937 0 006.61-12.254l3.12-9.131-4.05-28.906z" fill="#FFE43C"/><path d="M106.73 82.79c-.03-.805-.58-1.547-1.53-2.027-1.13-.565-2.82-.763-3.79-.021-3.19 1.88-3.19 5.735-3.19 8.838l1.95 11.69c-2.57 6.174-6.56 15.304-7.98 17.571h-6.6l-3.23-8.65v-7.323c0-2.215-1.09-4.127-3.16-5.516-.63-.428-1.12-.596-1.68-.794l-.37-.136c-.81-.292-2.07-.595-2.13-.606-.36-.083-1.58-.303-2.28.282-.31.262-.48.638-.48 1.055l-.19 42.602h-.82V156h29.29v-16.245h-2.45v-2.883l2.96-3.792a41.937 41.937 0 006.61-12.254l3.12-9.131-4.05-28.906zm-7.69 71.643H72.75v-13.111h26.29v13.111zm7.2-34.14a40.479 40.479 0 01-6.36 11.794l-3.29 4.221v3.447H73.57l.19-42.455c.2-.042.62-.021.94.052.01 0 1.23.292 1.96.554l.38.135c.52.189.87.303 1.35.627 1.64 1.108 2.48 2.518 2.48 4.2v7.616l3.7 9.924h8.68v-.428c1.94-2.873 7.7-16.663 8.38-18.303l.09-.219-2-11.951c0-3.521.19-6.112 2.47-7.428l.11-.073c.34-.282 1.4-.272 2.26.167.47.24.68.512.68.679l4 28.666-3 8.775z" fill="#181818"/><path d="M110.99 102.983c0 1.159-.89 2.089-2 2.089-1.1 0-2-.93-2-2.089 0-1.16.9-2.09 2-2.09s2 .93 2 2.09z" fill="#181818"/><path d="M105 127.271c1.243 0 2.25-1.052 2.25-2.35s-1.007-2.351-2.25-2.351-2.25 1.053-2.25 2.351 1.007 2.35 2.25 2.35z" fill="#fff" stroke="#181818" stroke-width="1.5"/><path d="M82 112.385c-1.1 0-2-.93-2-2.089 0-1.16.9-2.09 2-2.09s2 .93 2 2.09c0 1.159-.9 2.089-2 2.089zM73 98.804c-1.1 0-2-.93-2-2.09 0-1.148.9-2.088 2-2.088s2 .94 2 2.089c0 1.16-.9 2.09-2 2.09zM85 120.742c-1.1 0-2-.929-2-2.089s.9-2.089 2-2.089 2 .929 2 2.089-.9 2.089-2 2.089zM93 120.742c-1.1 0-2-.929-2-2.089s.9-2.089 2-2.089 2 .929 2 2.089-.9 2.089-2 2.089zM110 113.43c-1.11 0-2-.93-2-2.09 0-1.159.89-2.089 2-2.089 1.11 0 2 .93 2 2.089 0 1.16-.89 2.09-2 2.09zM106 84.179c-1.11 0-2-.94-2-2.09 0-1.149.89-2.089 2-2.089 1.11 0 2 .94 2 2.09 0 1.148-.89 2.089-2 2.089zM100 102.983c-1.1 0-2-.93-2-2.09 0-1.16.9-2.089 2-2.089 1.11 0 2 .93 2 2.089 0 1.16-.89 2.09-2 2.09zM98 137.457c-1.1 0-2-.94-2-2.089s.9-2.09 2-2.09 2 .941 2 2.09-.9 2.089-2 2.089z" fill="#181818"/><path d="M78.04 150.035c1.13 0 2.04-.972 2.04-2.163 0-1.19-.91-2.162-2.04-2.162-1.13.01-2.04.972-2.04 2.162 0 1.191.91 2.163 2.04 2.163z" fill="#fff" stroke="#181818" stroke-width="1.5" stroke-miterlimit="10"/><path d="M31.27 82.79c.03-.805.58-1.547 1.53-2.027 1.13-.565 2.82-.763 3.79-.021 3.19 1.88 3.19 5.735 3.19 8.838l-1.95 11.69c2.57 6.174 6.56 15.304 7.98 17.571h6.6l3.23-8.65v-7.323c0-2.215 1.09-4.127 3.16-5.516.63-.428 1.12-.596 1.68-.794l.37-.136c.81-.292 2.07-.595 2.13-.606.36-.083 1.58-.303 2.28.282.31.262.48.638.48 1.055l.19 42.602h.82V156H37.46v-16.245h2.45v-2.883l-2.96-3.792a41.937 41.937 0 01-6.61-12.254l-3.12-9.131 4.05-28.906z" fill="#FFE43C"/><path d="M31.27 82.79c.03-.805.58-1.547 1.53-2.027 1.13-.565 2.82-.763 3.79-.021 3.19 1.88 3.19 5.735 3.19 8.838l-1.95 11.69c2.57 6.174 6.56 15.304 7.98 17.571h6.6l3.23-8.65v-7.323c0-2.215 1.09-4.127 3.16-5.516.63-.428 1.12-.596 1.68-.794l.37-.136c.81-.292 2.07-.595 2.13-.606.36-.083 1.58-.303 2.28.282.31.262.48.638.48 1.055l.19 42.602h.82V156H37.46v-16.245h2.45v-2.883l-2.96-3.792a41.937 41.937 0 01-6.61-12.254l-3.12-9.131 4.05-28.906zm7.69 71.643h26.29v-13.111H38.96v13.111zm-7.2-34.14a40.479 40.479 0 006.36 11.794l3.29 4.221v3.447h23.02L64.24 97.3c-.2-.042-.62-.021-.94.052-.01 0-1.23.292-1.96.554l-.38.135c-.52.189-.87.303-1.35.627-1.64 1.108-2.48 2.518-2.48 4.2v7.616l-3.7 9.924h-8.68v-.428c-1.94-2.873-7.7-16.663-8.38-18.303l-.09-.219 2-11.951c0-3.521-.19-6.112-2.47-7.428l-.11-.073c-.34-.282-1.4-.272-2.26.167-.47.24-.68.512-.68.679l-4 28.666 3 8.775z" fill="#181818"/><path d="M27.01 102.983c0 1.159.89 2.089 2 2.089 1.1 0 2-.93 2-2.089 0-1.16-.9-2.09-2-2.09s-2 .93-2 2.09z" fill="#181818"/><path d="M33 127.271c-1.243 0-2.25-1.052-2.25-2.35s1.007-2.351 2.25-2.351 2.25 1.053 2.25 2.351-1.007 2.35-2.25 2.35z" fill="#fff" stroke="#181818" stroke-width="1.5"/><path d="M56 112.385c1.1 0 2-.93 2-2.089 0-1.16-.9-2.09-2-2.09s-2 .93-2 2.09c0 1.159.9 2.089 2 2.089zM65 98.804c1.1 0 2-.93 2-2.09 0-1.148-.9-2.088-2-2.088s-2 .94-2 2.089c0 1.16.9 2.09 2 2.09zM53 120.742c1.1 0 2-.929 2-2.089s-.9-2.089-2-2.089-2 .929-2 2.089.9 2.089 2 2.089zM45 120.742c1.1 0 2-.929 2-2.089s-.9-2.089-2-2.089-2 .929-2 2.089.9 2.089 2 2.089zM28 113.43c1.11 0 2-.93 2-2.09 0-1.159-.89-2.089-2-2.089-1.11 0-2 .93-2 2.089 0 1.16.89 2.09 2 2.09zM32 84.179c1.11 0 2-.94 2-2.09C34 80.94 33.11 80 32 80c-1.11 0-2 .94-2 2.09 0 1.148.89 2.089 2 2.089zM38 102.983c1.1 0 2-.93 2-2.09 0-1.16-.9-2.089-2-2.089-1.11 0-2 .93-2 2.089 0 1.16.89 2.09 2 2.09zM40 137.457c1.1 0 2-.94 2-2.089s-.9-2.09-2-2.09-2 .941-2 2.09.9 2.089 2 2.089z" fill="#181818"/><path d="M59.96 150.035c-1.13 0-2.04-.972-2.04-2.163 0-1.19.91-2.162 2.04-2.162 1.13.01 2.04.972 2.04 2.162 0 1.191-.91 2.163-2.04 2.163z" fill="#fff" stroke="#181818" stroke-width="1.5" stroke-miterlimit="10"/><path d="M41 64a2 2 0 11-4 0 2 2 0 014 0zM101 64a2 2 0 11-4 0 2 2 0 014 0z" fill="#181818"/><path d="M114 82.5a2.5 2.5 0 100-5 2.5 2.5 0 000 5z" fill="#fff" stroke="#181818"/><mask id="a" fill="#fff"><circle transform="matrix(0 1 1 0 114 79.998)" r="1"/></mask><circle transform="matrix(0 1 1 0 114 79.998)" fill="#fff" r="1"/><path d="M114 79.998h2a2 2 0 01-2 2v-2zm0 0v-2a2 2 0 012 2h-2zm0 0h-2a2 2 0 012-2v2zm0 0v2a2 2 0 01-2-2h2z" fill="#181818" mask="url(#a)"/><path d="M22 82.5a2.5 2.5 0 100-5 2.5 2.5 0 000 5z" fill="#fff" stroke="#181818"/><mask id="b" fill="#fff"><circle transform="matrix(0 1 1 0 22 79.998)" r="1"/></mask><circle transform="matrix(0 1 1 0 22 79.998)" fill="#fff" r="1"/><path d="M22 79.998h2a2 2 0 01-2 2v-2zm0 0v-2a2 2 0 012 2h-2zm0 0h-2a2 2 0 012-2v2zm0 0v2a2 2 0 01-2-2h2z" fill="#181818" mask="url(#b)"/><path d="M38.738 64c-.472-2-.738-4.108-.738-6.244C38 41.872 51.876 29 69 29c17.124 0 31 12.872 31 28.756 0 1.972-.587 4.354-1 6.244" stroke="#181818" stroke-width="1.5" stroke-miterlimit="10"/><path d="M71 31a2 2 0 100-4 2 2 0 000 4zM109.233 31a2 2 0 100-4 2 2 0 000 4zM35 31a2 2 0 100-4 2 2 0 000 4z" fill="#181818"/><path d="M35.748 28.742h72.233" stroke="#181818" stroke-width="1.5"/><path d="M71 57a2 2 0 100-4 2 2 0 000 4zM85 57a2 2 0 100-4 2 2 0 000 4zM57 57a2 2 0 100-4 2 2 0 000 4z" fill="#181818"/><path d="M57 55h28" stroke="#181818" stroke-width="1.5"/><path d="M71 90a2 2 0 100-4 2 2 0 000 4zM85 90a2 2 0 100-4 2 2 0 000 4zM57 90a2 2 0 100-4 2 2 0 000 4z" fill="#181818"/><path d="M57 88l28-.018M71 56v32m0-32c-5.523 0-10 7.163-10 16s4.477 16 10 16m0-32c5.523 0 10 7.163 10 16s-4.477 16-10 16M54 73h33m0-1c0 8.837-7.387 16-16.5 16S54 80.837 54 72s7.387-16 16.5-16S87 63.163 87 72z" stroke="#181818" stroke-width="1.5"/></svg>