<svg width="48" height="48" viewBox="0 0 48 48" fill="none" xmlns="http://www.w3.org/2000/svg">
<rect width="48" height="48" rx="6" fill="#1F2934"/>
<path d="M33.6026 29.0097C33.6026 28.4023 33.8128 27.8777 34.2333 27.436C34.6538 26.9942 35.1932 26.7734 35.8513 26.7734C36.5095 26.7734 37.0488 26.9942 37.4693 27.436C37.8898 27.8777 38.1001 28.4023 38.1001 29.0097C38.1001 29.617 37.8898 30.1508 37.4693 30.611C37.0488 31.0527 36.5095 31.2736 35.8513 31.2736C35.1932 31.2736 34.6538 31.0527 34.2333 30.611C33.8128 30.1508 33.6026 29.617 33.6026 29.0097Z" fill="white"/>
<path d="M12 17.9663H15.7845L18.5817 24.9789L22.1468 17L25.8216 25.0341L28.6188 17.9663H32.4307L26.2055 31.5221L22.1468 23.4604L18.1978 31.5221L12 17.9663Z" fill="#EF233C"/>
</svg>
